# xmcd
# Copyright (C) 1995-1998 Ti Kan
#
# Track frame offsets:
#       150
#       14580
#       29141
#       43482
#       58757
#       69312
#       89173
#       104535
#
# Disc length: 1845 seconds
#
# Revision: 0
# Processed by: cddbd v1.4PL0 Copyright (c) Steve Scherf et al.
# Submitted via: CD-Transfer v1.0
#
DISCID=7b073308
DTITLE=Passiunai - Steilas Da Grep
DYEAR=2001
DGENRE=
TTITLE0=Miu Dé
TTITLE1=Anavos
TTITLE2=Ju Per Te
TTITLE3=Quell' Atmosfera
TTITLE4=Tiu Cunfar
TTITLE5=Mai Ple
TTITLE6=Canzun Dallas Steilas
TTITLE7=Il Tschiel Sesarva
EXTD=
EXTT0=
EXTT1=
EXTT2=
EXTT3=
EXTT4=
EXTT5=
EXTT6=
EXTT7=
PLAYORDER=
